<?xml version="1.0" standalone="no"?>
<!DOCTYPE svg PUBLIC "-//W3C//DTD SVG 20010904//EN"
 "http://www.w3.org/TR/2001/REC-SVG-20010904/DTD/svg10.dtd">
<svg version="1.0" xmlns="http://www.w3.org/2000/svg"
 width="8000.000000pt" height="8000.000000pt" viewBox="0 0 8000.000000 8000.000000"
 preserveAspectRatio="xMidYMid meet">

<g transform="translate(0.000000,8000.000000) scale(0.100000,-0.100000)"
fill="#000000" stroke="none">
<path d="M31284 62995 c-12 -9 -14 -14 -6 -15 7 0 20 7 28 15 20 19 4 20 -22
0z"/>
<path d="M31155 62941 c-55 -20 -111 -43 -124 -50 -13 -7 -62 -26 -109 -42
-47 -16 -95 -35 -106 -42 -12 -8 -62 -28 -113 -45 -50 -17 -112 -40 -138 -52
-47 -21 -237 -90 -457 -166 -70 -24 -145 -52 -166 -63 -22 -11 -94 -36 -160
-56 -67 -20 -145 -46 -174 -59 -29 -13 -132 -47 -228 -76 -96 -29 -195 -62
-219 -72 -24 -10 -127 -43 -230 -73 -102 -30 -224 -68 -270 -85 -46 -16 -172
-54 -280 -84 -358 -99 -456 -126 -501 -143 -54 -19 -728 -193 -890 -229 -63
-14 -189 -43 -280 -64 -91 -21 -214 -48 -275 -60 -60 -11 -164 -32 -230 -45
-66 -14 -158 -31 -205 -39 -47 -9 -172 -34 -278 -56 -106 -22 -223 -42 -260
-45 -37 -3 -143 -21 -237 -40 -93 -19 -199 -37 -235 -40 -36 -4 -137 -20 -225
-36 -88 -16 -209 -33 -270 -38 -60 -6 -144 -17 -185 -26 -41 -9 -115 -18 -165
-20 -49 -2 -123 -11 -163 -19 -40 -9 -97 -16 -125 -16 -29 0 -90 -6 -137 -14
-47 -8 -121 -17 -165 -21 -44 -3 -114 -11 -155 -17 -41 -6 -106 -11 -145 -13
-92 -3 -327 -23 -345 -29 -17 -6 -141 -14 -315 -21 -66 -3 -129 -8 -139 -11
-11 -4 -65 -8 -120 -10 -56 -3 -150 -7 -211 -11 -60 -3 -141 -5 -180 -4 -38 0
-92 -3 -118 -9 -27 -6 -55 -6 -64 -2 -8 5 -38 5 -66 1 -29 -5 -241 -11 -472
-15 -709 -10 -942 -18 -1019 -34 -47 -10 -60 -9 -66 1 -7 10 -25 9 -89 -4 -90
-18 -135 -36 -91 -37 14 0 52 5 85 10 33 5 61 6 63 2 3 -9 114 -7 175 2 21 4
45 2 55 -2 10 -6 47 -4 92 4 47 8 79 9 86 3 6 -5 40 -8 75 -7 35 1 89 0 119
-1 30 -1 77 1 104 5 31 4 50 3 55 -4 5 -8 26 -7 74 4 48 11 72 13 80 5 7 -5
30 -11 51 -13 21 -1 40 -8 43 -15 6 -14 83 -18 83 -4 0 14 51 10 57 -5 6 -16
79 -19 88 -4 3 6 15 10 26 10 11 0 27 7 35 15 9 8 29 15 46 15 25 0 28 -2 19
-14 -9 -11 -9 -20 -2 -35 15 -27 14 -41 -4 -41 -8 0 -15 -4 -15 -9 0 -5 -29
-12 -65 -16 -66 -7 -85 -20 -85 -59 0 -23 37 -20 45 3 5 18 41 39 49 29 10
-11 15 -78 6 -78 -5 0 -10 5 -10 10 0 6 -7 10 -15 10 -8 0 -15 -4 -15 -9 0
-21 13 -41 27 -41 8 0 13 -7 11 -17 -2 -11 -22 -21 -63 -30 -117 -27 -144 -31
-148 -19 -6 19 -81 -6 -85 -29 -2 -12 0 -16 5 -9 4 6 20 14 34 17 25 6 27 4
32 -35 3 -24 5 -43 4 -44 -1 -1 -14 -4 -29 -8 -20 -4 -28 -3 -28 7 0 9 -9 12
-30 9 -21 -3 -30 -10 -30 -23 0 -14 -9 -21 -30 -25 -16 -4 -30 -13 -30 -20 0
-8 -7 -14 -15 -14 -17 0 -20 -27 -6 -49 8 -13 18 -13 68 -1 32 8 61 19 65 24
5 6 8 2 8 -10 0 -20 3 -21 48 -12 26 6 49 14 52 18 3 4 24 11 46 14 38 7 42 5
48 -16 9 -35 8 -38 -14 -38 -16 0 -20 -7 -20 -30 0 -23 4 -30 20 -30 11 0 20
5 20 10 0 6 11 10 24 10 22 0 26 -6 36 -57 6 -32 13 -68 16 -80 2 -14 12 -23
23 -23 14 0 20 -10 25 -39 l6 -39 41 9 c23 6 43 8 44 7 1 -2 5 -22 9 -45 6
-41 5 -43 -18 -43 -13 0 -31 -3 -40 -6 -10 -4 -17 2 -22 20 -3 14 -10 26 -15
26 -13 0 -11 -34 6 -110 19 -85 19 -90 -5 -90 -11 0 -20 -7 -20 -15 0 -8 4
-15 9 -15 21 0 41 13 41 26 0 8 7 14 15 14 8 0 15 9 15 20 0 11 -4 20 -10 20
-5 0 -10 11 -10 25 0 17 6 25 18 25 9 0 27 3 40 6 19 5 22 2 22 -20 0 -14 -4
-26 -10 -26 -5 0 -10 -9 -10 -19 0 -11 -9 -22 -19 -26 -16 -5 -18 -12 -14 -45
5 -33 3 -40 -11 -40 -9 0 -16 -5 -16 -11 0 -14 25 -39 39 -39 6 0 11 -7 11
-15 0 -8 7 -15 15 -15 8 0 15 5 15 10 0 20 28 9 34 -12 9 -35 8 -36 -26 -43
-58 -12 -66 -15 -71 -36 -4 -16 -2 -19 14 -14 11 4 19 2 19 -4 0 -6 7 -11 16
-11 14 0 16 -8 11 -42 -3 -24 -11 -44 -16 -46 -14 -5 -14 -62 -1 -62 6 0 15
11 20 25 7 18 17 25 35 25 14 0 25 -5 25 -11 0 -6 7 -8 16 -5 12 4 15 0 12
-17 -2 -18 -10 -23 -40 -25 -25 -2 -38 -8 -38 -18 0 -8 5 -14 10 -14 6 0 10
-9 10 -20 0 -11 -7 -20 -15 -20 -9 0 -15 -10 -15 -26 0 -20 4 -24 19 -19 14 4
20 -1 24 -22 3 -15 1 -30 -3 -33 -14 -9 1 -92 16 -86 8 3 16 -11 23 -45 6 -28
11 -57 11 -64 0 -8 4 -15 9 -15 5 0 12 -17 16 -37 5 -28 3 -40 -9 -49 -24 -17
-21 -47 4 -39 15 5 20 1 25 -19 17 -86 12 -79 59 -73 42 6 44 5 50 -25 9 -44
8 -45 -14 -51 -28 -7 -26 -30 3 -25 25 5 47 -12 47 -36 0 -9 -15 -17 -40 -21
-26 -4 -40 -12 -40 -22 0 -15 29 -15 71 2 13 5 18 -3 23 -42 9 -68 29 -120 44
-115 17 5 15 -36 -2 -54 -8 -8 -24 -14 -35 -14 -22 0 -27 -16 -12 -39 5 -8 18
-12 29 -9 17 5 22 0 27 -24 5 -23 11 -29 26 -25 11 3 19 0 19 -8 0 -15 -22
-25 -56 -25 -17 0 -24 -6 -24 -20 0 -13 7 -20 20 -20 11 0 20 5 20 10 0 6 7
10 15 10 10 0 15 -10 15 -30 0 -23 -5 -30 -19 -30 -11 0 -22 -3 -24 -7 -6 -10
14 -137 23 -143 14 -11 42 -159 35 -190 -4 -20 -3 -30 2 -27 6 4 15 -10 21
-30 12 -38 5 -52 -26 -53 -14 0 -42 -24 -42 -36 0 -7 54 0 83 11 12 5 17 2 17
-9 0 -9 -7 -16 -16 -16 -12 0 -14 -7 -9 -30 6 -26 3 -30 -19 -36 -24 -6 -38
-34 -17 -34 21 0 41 13 41 26 0 8 6 14 14 14 8 0 17 6 19 13 3 6 6 2 6 -9 1
-12 -10 -32 -24 -45 -31 -30 -34 -69 -5 -69 11 0 20 7 20 15 0 23 18 18 26 -7
4 -13 2 -24 -5 -26 -6 -2 -11 -12 -11 -22 0 -13 -10 -20 -40 -25 -39 -7 -48
-18 -31 -43 6 -10 18 -11 48 -4 l41 9 5 -41 c3 -23 1 -43 -4 -47 -6 -4 -8 -21
-3 -44 6 -34 9 -37 35 -31 l29 5 -7 -46 c-5 -41 -4 -46 10 -40 11 4 17 1 17
-8 0 -8 -4 -15 -10 -15 -14 0 -13 -36 2 -60 11 -17 9 -22 -10 -36 -13 -9 -21
-22 -18 -30 3 -8 -1 -14 -11 -14 -12 0 -13 -3 -3 -15 7 -8 16 -12 21 -9 5 3 9
-7 9 -22 0 -27 -1 -27 -16 -8 -11 13 -17 15 -20 7 -3 -7 -14 -13 -24 -13 -10
0 -20 -6 -23 -14 -4 -9 2 -12 19 -10 13 1 24 -2 24 -7 0 -5 -9 -9 -20 -9 -11
0 -20 -7 -20 -16 0 -8 -4 -12 -10 -9 -5 3 -10 2 -10 -4 0 -20 22 -22 27 -2 6
25 23 28 23 5 0 -9 -17 -22 -39 -31 -23 -9 -44 -26 -51 -41 l-12 -27 -13 33
c-8 17 -17 32 -20 32 -3 0 -1 -9 5 -19 5 -11 10 -31 10 -45 0 -17 6 -26 16
-26 9 0 14 -6 12 -12 -5 -15 -76 -29 -80 -17 -2 5 -8 5 -14 1 -17 -10 -22 -64
-7 -69 9 -3 11 4 7 26 -9 42 13 41 24 -1 6 -22 5 -36 -2 -40 -6 -4 1 -8 17 -8
17 0 27 -5 27 -15 0 -9 -9 -15 -24 -15 -16 0 -27 -7 -32 -22 -6 -19 -7 -19
-16 -4 -5 9 -6 25 -3 36 5 15 3 18 -9 14 -9 -3 -16 -10 -16 -15 0 -5 -7 -9
-16 -9 -12 0 -15 -7 -12 -30 3 -16 1 -30 -4 -30 -4 0 -8 -4 -8 -10 0 -5 9 -10
20 -10 11 0 20 -6 20 -14 0 -15 -22 -42 -39 -48 -6 -1 -11 -23 -12 -48 -2 -65
-8 -80 -30 -80 -16 0 -19 5 -14 20 5 16 2 20 -16 20 -18 0 -19 2 -9 15 7 9 8
15 2 15 -5 0 -12 -6 -15 -13 -7 -19 4 -68 14 -61 5 3 9 -2 9 -10 0 -9 -7 -16
-15 -16 -8 0 -15 -6 -15 -12 0 -9 -3 -8 -10 2 -6 9 -5 17 3 23 11 8 -2 5 -56
-9 -13 -4 -16 -12 -10 -32 3 -15 10 -28 15 -30 14 -6 9 -22 -7 -22 -8 0 -15 5
-15 10 0 6 -4 10 -8 10 -4 0 -7 -12 -6 -27 2 -38 3 -40 13 -24 5 7 14 10 20 6
15 -9 -4 -35 -26 -35 -8 0 -11 -4 -8 -10 3 -5 2 -10 -3 -10 -5 0 -12 9 -15 20
-3 11 -9 20 -14 20 -4 0 -14 -9 -21 -20 -10 -17 -10 -20 3 -20 8 0 15 -5 15
-11 0 -7 -10 -9 -25 -7 -26 5 -37 -16 -13 -24 15 -5 -13 -38 -31 -38 -6 0 -11
-4 -11 -9 0 -6 -12 -16 -27 -23 -23 -11 -28 -20 -29 -50 -1 -21 2 -35 6 -33
12 7 20 -49 9 -59 -5 -6 -9 -23 -9 -39 0 -25 -3 -28 -27 -25 -19 2 -29 10 -33
28 -6 25 -6 25 -12 3 -4 -14 -2 -23 5 -23 6 0 8 -3 4 -6 -12 -12 24 -36 45
-31 31 9 71 -39 55 -65 -16 -24 -31 -23 -24 2 3 11 1 23 -4 26 -9 5 -13 -9
-10 -33 1 -6 -4 -15 -10 -19 -8 -4 -9 -3 -5 4 4 7 3 12 -3 12 -11 0 -26 -39
-17 -47 3 -3 12 0 21 7 9 7 18 10 21 7 11 -11 -7 -27 -39 -35 -27 -7 -33 -14
-35 -40 -3 -25 -9 -33 -29 -38 -21 -6 -24 -11 -19 -35 3 -15 1 -31 -5 -34 -5
-4 -9 -16 -7 -28 3 -19 -1 -22 -25 -19 -15 2 -34 -4 -42 -11 -12 -12 -10 -18
15 -42 17 -16 28 -30 26 -33 -3 -2 -15 5 -27 17 -12 11 -27 17 -33 14 -7 -4
-6 -8 2 -11 16 -5 15 -22 -1 -22 -16 0 -57 -37 -57 -50 0 -6 11 -10 24 -10 22
0 36 -16 36 -41 0 -5 -9 -9 -20 -9 -11 0 -20 -4 -20 -10 0 -5 -7 -10 -15 -10
-8 0 -15 -7 -15 -15 0 -8 -9 -15 -21 -15 -17 0 -20 -5 -17 -32 4 -39 20 -46
46 -18 17 18 20 19 26 5 4 -11 2 -14 -7 -9 -6 4 -3 -2 7 -14 11 -12 14 -22 8
-22 -6 0 -14 -9 -17 -21 -4 -12 -13 -18 -20 -15 -8 3 -16 0 -19 -7 -4 -7 -4 0
-2 16 2 15 0 27 -4 27 -10 0 -20 -26 -20 -50 0 -10 -7 -20 -15 -24 -8 -3 -14
-11 -13 -18 2 -7 -4 -13 -12 -13 -17 0 -40 -17 -34 -26 2 -3 17 -4 35 -1 l31
5 -17 -27 c-10 -14 -28 -29 -41 -32 -17 -4 -24 -13 -24 -29 0 -13 -6 -26 -12
-28 -7 -3 3 -6 22 -6 35 -1 35 -1 10 -14 -14 -7 -26 -9 -28 -5 -8 19 -22 5
-22 -22 0 -22 5 -30 18 -30 12 0 13 -3 5 -8 -7 -4 -14 -23 -16 -42 -4 -29 -9
-36 -37 -43 -22 -5 -29 -11 -22 -16 8 -4 10 -15 6 -26 -5 -12 -4 -16 4 -11 6
3 13 2 16 -3 3 -5 -1 -11 -9 -15 -8 -3 -15 -1 -15 4 0 6 -4 10 -10 10 -5 0
-10 -11 -10 -25 0 -19 -5 -25 -21 -25 -19 0 -19 -1 -5 -16 20 -20 20 -34 1
-34 -8 0 -15 -4 -15 -10 0 -5 -7 -10 -15 -10 -8 0 -15 -7 -15 -16 0 -9 -9 -18
-21 -21 -11 -3 -18 -11 -15 -18 2 -7 0 -17 -6 -23 -6 -6 -1 -8 16 -5 26 5 36
-10 14 -23 -7 -5 -8 -3 -3 6 5 9 4 11 -3 6 -9 -5 -9 -13 -1 -28 8 -15 8 -19 0
-14 -6 4 -11 2 -11 -3 0 -6 -16 -11 -35 -11 -44 0 -61 -27 -46 -71 6 -16 7
-28 2 -25 -4 3 -14 -4 -21 -15 -8 -10 -23 -19 -33 -19 -15 0 -18 -5 -13 -24 3
-14 1 -28 -4 -31 -7 -5 -8 -11 -1 -19 13 -16 -3 -41 -20 -31 -9 6 -11 3 -6 -8
3 -10 2 -17 -4 -17 -6 0 -8 -9 -4 -21 5 -15 4 -19 -5 -14 -8 5 -11 0 -10 -16
3 -36 1 -45 -8 -31 -7 9 -13 7 -27 -9 -11 -11 -15 -20 -10 -19 20 4 35 0 35
-10 0 -5 -3 -9 -7 -9 -23 4 -32 -4 -35 -28 -2 -23 -8 -28 -29 -26 -16 1 -26
-4 -26 -13 0 -9 7 -12 17 -9 11 3 16 -1 16 -14 0 -12 -5 -17 -15 -13 -8 3 -12
0 -9 -8 5 -15 -25 -50 -42 -50 -22 0 -9 -38 15 -44 31 -8 23 -28 -8 -22 -12 1
-16 1 -9 -1 18 -7 15 -21 -8 -28 -14 -4 -20 -15 -20 -36 0 -16 5 -29 10 -29 6
0 10 -7 10 -16 0 -13 -3 -14 -14 -5 -11 9 -16 9 -21 0 -4 -6 -3 -14 2 -18 15
-9 12 -40 -4 -34 -7 3 -11 8 -8 12 2 4 -2 8 -10 8 -13 0 -13 -4 0 -24 14 -21
14 -23 -1 -23 -10 0 -14 -5 -11 -14 4 -10 -2 -16 -16 -18 -15 -2 -24 -13 -29
-38 -5 -19 -10 -42 -12 -50 -3 -8 -5 -17 -6 -20 0 -3 -7 4 -15 14 -13 17 -14
14 -8 -34 4 -37 3 -51 -5 -46 -15 9 -27 -13 -13 -27 6 -6 11 -18 11 -27 0 -12
-2 -13 -9 -1 -13 21 -29 5 -23 -25 3 -17 -3 -36 -18 -56 -19 -25 -20 -34 -11
-55 8 -17 8 -22 0 -18 -5 4 -17 -1 -25 -11 -13 -16 -15 -17 -10 -2 3 12 1 15
-10 11 -21 -8 -11 -28 15 -27 11 0 21 -3 21 -8 0 -4 -4 -8 -9 -8 -6 0 -8 -9
-6 -21 4 -18 1 -20 -23 -15 -15 4 -22 3 -15 -2 7 -4 14 -19 15 -32 3 -23 0
-25 -35 -22 -37 4 -37 3 -25 -23 9 -21 9 -28 -1 -34 -6 -4 -11 -14 -9 -21 2
-8 -4 -14 -12 -15 -11 0 -14 -9 -12 -33 2 -19 -1 -32 -8 -32 -17 0 -35 -22
-38 -45 -1 -11 -4 -29 -6 -40 -2 -11 -5 -23 -5 -27 -1 -5 -9 -8 -18 -9 -10 0
-13 -3 -6 -6 8 -3 4 -13 -12 -29 -26 -26 -34 -44 -12 -25 19 15 28 3 21 -25
-5 -18 -2 -24 10 -24 20 0 21 -26 1 -34 -8 -3 -15 -14 -15 -24 0 -10 -6 -24
-12 -30 -10 -10 -10 -15 0 -21 11 -6 10 -10 -5 -16 -10 -5 -27 -8 -38 -7 -16
1 -17 0 -2 -4 19 -6 23 -24 5 -24 -9 0 -9 -3 -1 -11 9 -9 8 -15 -3 -26 -8 -8
-12 -19 -9 -24 4 -5 -2 -6 -11 -2 -12 4 -15 3 -10 -5 4 -7 3 -12 -2 -12 -14 0
-22 -53 -10 -67 7 -9 7 -13 0 -13 -6 0 -12 5 -14 11 -4 12 -38 1 -38 -13 0 -5
5 -6 10 -3 6 3 10 -3 10 -15 0 -13 -4 -19 -11 -14 -8 5 -10 -3 -6 -27 3 -23
-1 -40 -12 -53 -15 -18 -15 -19 2 -13 15 6 16 4 7 -14 -6 -11 -18 -23 -26 -26
-8 -3 -13 -13 -12 -22 2 -9 -3 -15 -9 -14 -7 2 -13 -3 -13 -10 0 -8 -4 -7 -11
3 -8 12 -9 10 -4 -7 4 -16 1 -23 -15 -28 l-22 -7 21 -15 c25 -17 28 -48 5 -57
-10 -4 -13 -13 -9 -26 4 -12 2 -20 -6 -20 -22 0 -38 -32 -28 -58 10 -26 3 -46
-12 -37 -5 4 -12 -2 -16 -12 -4 -10 -13 -24 -20 -31 -11 -11 -10 -16 2 -28 21
-21 19 -31 -7 -38 -18 -5 -20 -8 -9 -15 10 -6 10 -10 1 -16 -7 -4 -9 -18 -5
-37 8 -32 -11 -88 -29 -88 -6 0 -17 -9 -24 -21 -8 -12 -9 -18 -3 -15 7 4 8 1
5 -8 -3 -9 -10 -13 -15 -10 -5 3 -9 -3 -9 -14 0 -10 -9 -27 -21 -38 -15 -13
-20 -28 -17 -51 2 -17 0 -29 -4 -27 -4 3 -8 1 -8 -4 0 -5 -10 -12 -22 -16 -17
-4 -20 -8 -10 -14 10 -7 10 -15 1 -38 -7 -16 -11 -35 -10 -41 1 -7 -2 -13 -6
-13 -4 0 -15 -5 -23 -10 -13 -8 -12 -11 5 -25 16 -12 17 -14 3 -9 -14 5 -18 1
-18 -17 0 -22 0 -22 -16 -3 -15 18 -15 18 -5 -2 6 -12 7 -24 4 -28 -15 -15 6
-4 27 14 24 21 60 27 60 11 0 -5 -11 -22 -24 -38 -13 -16 -22 -37 -20 -50 2
-13 -1 -23 -7 -23 -5 0 -9 -6 -8 -12 3 -27 -2 -37 -16 -32 -10 4 -15 0 -15
-14 0 -11 -3 -29 -7 -39 -6 -16 -5 -16 10 -4 9 7 17 10 17 6 0 -4 -9 -14 -21
-23 -11 -10 -21 -24 -22 -34 -2 -9 -9 -23 -16 -32 -11 -13 -11 -16 0 -16 10
-1 9 -4 -3 -14 -10 -7 -18 -21 -18 -30 0 -10 -4 -15 -9 -12 -12 8 -41 -4 -41
-16 0 -5 8 -7 18 -4 15 5 18 0 19 -34 2 -34 -1 -40 -19 -40 -14 0 -18 -5 -14
-16 5 -12 1 -14 -15 -9 -17 6 -20 3 -17 -12 3 -12 11 -17 26 -16 12 2 22 -2
22 -8 0 -5 -4 -7 -10 -4 -5 3 -10 -1 -10 -9 0 -9 -4 -16 -10 -16 -5 0 -10 -6
-10 -14 0 -8 -9 -18 -20 -21 -27 -9 -29 -79 -2 -94 9 -6 13 -11 7 -11 -5 0
-16 -4 -24 -9 -12 -8 -12 -12 -2 -24 10 -13 8 -16 -8 -22 -12 -3 -21 -12 -21
-18 0 -7 -7 -25 -15 -40 -14 -27 -14 -28 8 -22 17 5 14 1 -10 -17 -34 -24 -44
-44 -18 -34 8 3 15 2 16 -2 4 -40 3 -60 -3 -56 -4 3 -8 0 -8 -6 0 -6 -4 -9 -9
-5 -5 3 -12 1 -15 -4 -4 -5 -2 -12 4 -16 6 -3 -1 -17 -17 -31 -14 -13 -21 -24
-14 -24 6 0 11 -4 11 -10 0 -5 -6 -10 -14 -10 -11 0 -13 -7 -6 -30 7 -24 6
-30 -6 -30 -10 0 -13 -6 -10 -18 5 -13 -1 -22 -19 -30 -26 -12 -32 -26 -15
-37 16 -10 12 -65 -5 -65 -8 0 -15 -5 -15 -12 0 -6 -7 -20 -17 -30 -9 -10 -13
-21 -9 -25 4 -4 11 -1 16 7 13 20 12 3 0 -21 -6 -10 -17 -19 -24 -19 -9 0 -13
-13 -11 -45 1 -30 -3 -45 -11 -45 -12 0 -21 -15 -22 -35 0 -5 4 -9 9 -8 16 5
10 -6 -21 -36 -21 -19 -27 -30 -18 -33 10 -4 10 -9 -2 -23 -9 -11 -10 -16 -2
-11 6 4 12 2 12 -3 0 -6 -4 -11 -10 -11 -5 0 -7 -7 -4 -15 4 -8 1 -15 -5 -15
-6 0 -8 -7 -4 -17 4 -11 3 -14 -5 -9 -11 7 -17 -6 -13 -28 1 -4 -3 -14 -10
-22 -6 -7 -8 -18 -4 -24 4 -6 -5 -10 -22 -11 -15 0 -22 -3 -15 -6 17 -7 15
-23 -4 -23 -12 0 -15 -7 -12 -25 3 -14 1 -25 -4 -25 -6 0 -7 -8 -4 -17 4 -9 1
-20 -6 -25 -10 -8 -10 -11 -1 -15 14 -5 8 -48 -9 -70 -6 -7 -8 -18 -5 -25 2
-7 -5 -26 -17 -43 -11 -16 -20 -39 -19 -50 2 -11 0 -14 -3 -7 -11 25 -24 -1
-24 -49 0 -27 -4 -49 -10 -49 -5 0 -10 -7 -10 -16 0 -8 -4 -13 -9 -10 -17 11
-21 -25 -6 -54 13 -26 13 -28 -4 -23 -10 3 -22 0 -25 -6 -4 -6 -1 -9 6 -6 17
7 24 -50 8 -60 -6 -4 -8 -11 -5 -16 4 -5 0 -12 -9 -15 -9 -3 -12 -12 -9 -21 5
-12 3 -14 -7 -8 -10 6 -12 3 -8 -13 4 -12 2 -22 -4 -22 -5 0 -6 -5 -2 -12 4
-6 3 -8 -3 -5 -14 9 -37 -19 -28 -34 5 -8 1 -9 -15 -4 -16 5 -21 4 -18 -6 3
-8 18 -14 34 -14 32 0 43 -24 22 -46 -8 -8 -15 -24 -16 -36 -4 -51 -5 -52 -23
-42 -24 12 -39 11 -16 -2 19 -11 24 -50 5 -46 -8 1 -12 -16 -13 -52 -1 -40 -6
-57 -20 -67 -10 -8 -15 -17 -12 -21 4 -3 13 2 21 12 9 12 15 15 20 7 4 -7 2
-12 -3 -12 -6 0 -11 -7 -11 -15 0 -8 -4 -15 -9 -15 -5 0 -8 -11 -5 -24 2 -14
0 -27 -5 -30 -5 -3 -7 -15 -4 -26 4 -14 0 -20 -11 -20 -9 0 -16 -6 -16 -14 0
-8 -7 -16 -15 -20 -8 -3 -15 -10 -15 -16 0 -6 4 -9 9 -6 5 3 11 -3 14 -14 3
-11 1 -23 -5 -26 -5 -3 -8 -14 -5 -24 4 -14 1 -17 -12 -12 -14 5 -14 4 -2 -11
12 -15 12 -17 -1 -12 -12 5 -15 -1 -12 -32 2 -21 -1 -53 -6 -70 -5 -20 -5 -35
1 -39 5 -3 9 -10 9 -15 0 -6 -4 -7 -10 -4 -5 3 -10 -1 -10 -10 0 -10 5 -13 13
-9 8 6 8 3 -2 -9 -8 -10 -11 -27 -7 -43 6 -21 4 -25 -8 -21 -10 4 -16 1 -16
-8 0 -8 6 -15 13 -15 9 0 8 -3 -2 -9 -7 -5 -11 -13 -7 -19 3 -6 1 -14 -5 -17
-7 -5 -9 -23 -5 -50 5 -33 4 -44 -9 -49 -13 -4 -13 -9 -3 -25 9 -15 8 -22 -5
-35 -8 -9 -22 -16 -29 -16 -9 0 -10 -3 -2 -8 6 -4 14 -18 18 -32 4 -15 4 -20
-1 -13 -6 8 -9 -2 -8 -27 0 -22 4 -40 9 -40 6 0 1 -6 -9 -14 -18 -13 -18 -14
0 -42 18 -28 18 -29 0 -14 -17 14 -18 13 -12 -2 4 -10 2 -18 -5 -18 -6 0 -5
-6 3 -17 12 -15 12 -16 -1 -8 -13 8 -13 6 -2 -8 8 -9 11 -25 7 -38 -5 -14 -4
-19 4 -15 17 11 13 -10 -5 -29 -10 -10 -14 -24 -10 -40 5 -18 2 -25 -8 -25
-10 0 -13 -6 -9 -15 3 -10 1 -15 -7 -13 -7 2 -13 -8 -14 -23 -1 -18 3 -25 11
-22 15 6 18 -23 4 -31 -10 -6 -9 -20 3 -48 5 -10 9 -37 9 -61 2 -38 0 -43 -17
-39 -16 4 -17 2 -7 -17 7 -11 16 -21 21 -21 6 0 10 -5 10 -11 0 -5 -4 -8 -8
-5 -4 2 -6 -24 -5 -60 2 -45 -1 -64 -10 -64 -7 -1 -4 -6 6 -14 17 -13 17 -17
3 -51 -13 -31 -13 -36 -2 -32 11 5 14 -4 11 -41 -1 -26 -4 -47 -5 -47 -1 0 -4
-10 -5 -22 -1 -13 2 -23 7 -23 5 0 7 -4 4 -9 -3 -5 1 -12 10 -15 23 -9 24 -8
24 23 0 16 5 42 10 57 6 15 24 87 40 158 17 72 39 165 49 206 11 41 30 113 41
160 21 82 53 203 70 265 55 200 70 253 95 335 9 30 19 69 21 85 3 17 9 39 13
50 9 23 17 49 56 185 40 138 95 321 106 348 5 13 9 30 9 40 0 9 11 46 25 82
13 36 34 99 45 140 12 41 25 82 29 90 4 8 24 69 45 135 21 66 46 139 56 161
10 23 22 58 25 78 4 20 11 39 16 42 5 3 9 14 9 25 0 10 4 27 10 37 11 19 43
108 67 187 8 28 19 58 24 67 10 20 32 78 60 163 11 33 26 74 34 90 18 41 51
123 90 225 18 47 48 123 70 175 6 17 38 95 69 175 56 141 82 204 125 302 12
26 21 51 21 55 0 5 18 44 40 88 22 44 40 83 40 87 0 7 22 56 86 196 13 29 24
58 24 65 0 6 9 30 19 52 11 22 31 65 44 95 14 30 37 80 50 110 14 30 50 107
80 170 73 152 135 287 154 330 8 19 22 49 31 65 8 17 19 37 23 45 52 105 227
455 236 472 7 13 26 52 43 88 60 127 149 292 283 523 20 36 37 69 37 73 0 4 6
15 14 23 8 9 33 52 56 96 23 43 64 117 91 162 27 46 49 86 49 88 0 3 14 24 30
47 17 22 30 47 30 54 0 7 6 19 13 26 7 7 29 40 47 73 19 33 40 67 45 76 6 9
30 50 54 90 23 41 50 85 60 99 9 14 23 39 31 55 8 17 23 43 35 60 40 59 85
138 85 149 0 6 12 22 25 35 14 13 25 27 25 32 0 5 16 31 35 58 19 26 35 51 35
54 0 4 13 26 29 49 15 24 82 123 147 221 66 98 142 211 169 251 56 81 64 93
146 221 32 50 71 107 86 127 16 20 38 52 50 70 13 18 53 75 90 125 38 51 91
125 118 164 28 39 62 85 76 102 15 18 39 50 55 73 16 22 48 65 71 95 41 53
190 251 255 339 18 25 65 86 103 135 39 50 77 100 85 111 8 12 35 47 60 78 25
32 56 72 70 90 43 56 111 138 215 260 55 65 118 139 140 165 47 57 160 184
261 296 40 45 86 96 101 115 15 20 39 46 53 60 14 14 95 104 180 200 219 247
881 919 1065 1080 33 29 101 94 150 144 50 50 126 122 170 161 44 38 125 113
180 166 55 53 114 108 130 122 17 14 73 63 125 108 52 45 136 119 185 165 50
45 108 97 130 114 22 17 45 37 50 43 6 7 51 46 100 87 115 95 249 213 253 223
2 4 8 7 14 7 5 0 15 6 22 13 7 6 28 24 47 39 19 14 59 46 89 69 30 24 61 48
70 56 8 7 44 35 80 63 36 29 76 62 90 74 14 13 43 34 65 48 22 14 49 34 61 44
11 11 27 24 36 29 8 6 40 29 69 52 127 98 156 120 189 140 19 12 44 30 55 40
11 10 65 51 120 92 151 113 166 123 225 163 90 60 225 160 228 169 2 5 10 9
18 9 8 0 14 3 14 8 0 4 8 12 19 17 36 20 106 68 109 76 2 5 8 9 14 9 6 0 26
11 44 25 18 14 37 25 43 25 6 0 11 5 11 10 0 6 5 10 11 10 6 0 33 16 59 35 26
19 53 35 59 35 6 0 11 3 11 8 0 4 29 25 65 47 36 22 65 43 65 47 0 4 5 8 12 8
6 0 26 11 44 25 18 14 37 25 43 25 6 0 11 3 11 8 0 4 10 12 23 18 47 23 92 50
111 67 11 9 24 17 29 17 6 0 25 11 43 25 18 14 35 25 38 25 6 0 179 110 186
119 7 9 40 28 80 47 19 10 43 24 53 32 19 17 44 32 97 58 19 9 49 27 65 38 17
12 44 28 60 36 17 8 50 28 75 45 25 16 59 37 75 45 17 8 60 34 97 57 37 24 69
43 72 43 3 0 28 16 55 35 26 19 52 35 57 35 5 0 35 16 66 34 31 19 94 54 140
79 46 24 101 54 123 68 22 13 54 31 70 39 17 8 41 22 55 31 21 14 68 40 165
93 11 6 22 13 25 16 3 3 37 21 75 41 39 20 79 40 90 46 11 7 52 27 90 46 84
41 166 86 180 98 12 12 14 12 -100 -30z m-9585 -2161 c0 -13 -7 -20 -20 -20
-25 0 -27 27 -2 33 9 3 18 5 20 6 1 0 2 -8 2 -19z m40 -20 c0 -5 -7 -10 -16
-10 -8 0 -12 5 -9 10 3 6 10 10 16 10 5 0 9 -4 9 -10z m-142 -505 c-2 -1 -15
-5 -30 -9 -26 -6 -28 -4 -28 24 0 25 4 30 25 30 14 0 26 6 27 13 0 6 3 -3 5
-21 3 -19 3 -35 1 -37z m-2 -90 c8 -31 7 -31 -29 -40 -25 -7 -27 -5 -27 23 0
46 45 59 56 17z m48 -71 c11 -28 7 -34 -24 -34 -25 0 -30 4 -30 25 0 20 5 25
24 25 13 0 27 -7 30 -16z m90 -350 c10 -26 7 -44 -8 -44 -8 0 -16 -7 -20 -15
-6 -17 -46 -21 -46 -4 0 6 9 13 21 16 16 5 19 11 14 34 -6 24 -3 29 13 29 11
0 23 -7 26 -16z m56 -294 c0 -15 -7 -20 -25 -20 -41 0 -30 37 13 39 6 1 12 -8
12 -19z m76 -282 c4 -13 2 -24 -5 -26 -6 -2 -11 -12 -11 -22 0 -11 -10 -20
-27 -23 -16 -3 -29 -4 -30 -3 -1 1 -5 20 -9 43 -7 44 -9 42 63 52 6 0 15 -9
19 -21z m58 -354 c3 -8 0 -22 -8 -30 -16 -16 -46 -19 -46 -5 0 5 -3 16 -6 24
-4 11 2 17 18 20 13 2 26 5 29 6 4 0 10 -6 13 -15z m220 -416 c8 -6 7 -11 -4
-18 -21 -14 -50 -12 -50 3 0 7 8 23 18 35 15 19 17 19 21 4 2 -9 8 -20 15 -24z
m-180 -2003 c-4 -8 -8 -15 -10 -15 -2 0 -4 7 -4 15 0 8 4 15 10 15 5 0 7 -7 4
-15z m-94 -205 c0 -5 -9 -10 -20 -10 -11 0 -20 5 -20 10 0 6 9 10 20 10 11 0
20 -4 20 -10z m-358 -735 c0 -5 -5 -11 -11 -13 -6 -2 -11 4 -11 13 0 9 5 15
11 13 6 -2 11 -8 11 -13z m-82 -96 c0 -6 -4 -7 -10 -4 -5 3 -10 11 -10 16 0 6
5 7 10 4 6 -3 10 -11 10 -16z m-130 -379 c0 -5 -4 -10 -10 -10 -5 0 -10 5 -10
10 0 6 5 10 10 10 6 0 10 -4 10 -10z m-370 -680 c0 -5 -4 -10 -10 -10 -5 0 -9
-3 -9 -7 3 -20 -2 -27 -10 -14 -5 8 -7 20 -4 28 6 15 33 18 33 3z m-500 -1140
c0 -5 -4 -10 -10 -10 -5 0 -10 5 -10 10 0 6 5 10 10 10 6 0 10 -4 10 -10z
m-335 -840 c3 -5 1 -10 -4 -10 -6 0 -11 5 -11 10 0 6 2 10 4 10 3 0 8 -4 11
-10z m-160 -450 c-3 -5 -11 -10 -16 -10 -6 0 -7 5 -4 10 3 6 11 10 16 10 6 0
7 -4 4 -10z m-99 -336 c-3 -9 -6 -18 -6 -20 0 -2 -4 -4 -9 -4 -5 0 -7 9 -4 20
3 11 10 20 15 20 6 0 7 -7 4 -16z m-56 -124 c0 -5 -7 -7 -15 -4 -8 4 -15 8
-15 10 0 2 7 4 15 4 8 0 15 -4 15 -10z m-290 -910 c0 -5 -7 -6 -17 -3 -11 4
-14 3 -9 -5 4 -7 3 -12 -3 -12 -16 0 -22 18 -9 23 22 9 38 8 38 -3z m-790
-2505 c0 -8 -2 -15 -4 -15 -2 0 -6 7 -10 15 -3 8 -1 15 4 15 6 0 10 -7 10 -15z"/>
<path d="M19812 60825 c-88 -17 -108 -39 -27 -30 107 13 138 20 143 33 5 15
-30 14 -116 -3z"/>
<path d="M19545 60803 c-46 -10 -51 -13 -35 -24 18 -11 99 -2 149 17 36 13 36
13 -29 12 -36 0 -74 -2 -85 -5z"/>
<path d="M20940 60800 c0 -5 4 -10 9 -10 6 0 13 5 16 10 3 6 -1 10 -9 10 -9 0
-16 -4 -16 -10z"/>
<path d="M19470 60780 c-13 -8 -12 -10 3 -10 9 0 17 5 17 10 0 12 -1 12 -20 0z"/>
<path d="M19255 60770 c-11 -5 -31 -9 -45 -10 -14 0 -38 -7 -55 -15 l-30 -15
45 5 c70 7 130 21 143 34 13 13 -27 14 -58 1z"/>
<path d="M18890 60710 c-12 -8 -10 -10 10 -10 14 0 32 5 40 10 12 8 10 10 -10
10 -14 0 -32 -5 -40 -10z"/>
<path d="M21187 60703 c-15 -14 -6 -31 13 -26 11 3 20 12 20 19 0 14 -22 19
-33 7z"/>
<path d="M18735 60674 l-40 -14 44 4 c24 3 48 9 54 15 15 15 -7 13 -58 -5z"/>
<path d="M17850 60460 c-8 -5 -10 -10 -5 -10 6 0 17 5 25 10 8 5 11 10 5 10
-5 0 -17 -5 -25 -10z"/>
<path d="M17410 60320 c0 -5 7 -7 15 -4 8 4 15 8 15 10 0 2 -7 4 -15 4 -8 0
-15 -4 -15 -10z"/>
<path d="M20890 60295 c0 -14 7 -28 15 -32 22 -8 27 0 19 31 -8 34 -34 34 -34
1z"/>
<path d="M21307 60183 c-11 -3 -16 -10 -13 -20 3 -8 6 -20 6 -27 0 -8 10 -11
30 -8 30 4 36 16 24 46 -6 16 -14 18 -47 9z"/>
<path d="M16470 59900 c-9 -6 -10 -10 -3 -10 6 0 15 5 18 10 8 12 4 12 -15 0z"/>
<path d="M21843 58112 c-30 -4 -32 -42 -3 -42 20 0 36 21 28 37 -1 4 -13 7
-25 5z"/>
<path d="M16490 57970 c-13 -9 -13 -10 0 -9 8 1 26 5 40 9 l25 8 -25 1 c-14 0
-32 -4 -40 -9z"/>
<path d="M16758 57943 c7 -3 16 -2 19 1 4 3 -2 6 -13 5 -11 0 -14 -3 -6 -6z"/>
<path d="M16840 57940 l-25 -8 28 -1 c15 -1 27 4 27 9 0 6 -1 10 -2 9 -2 -1
-14 -5 -28 -9z"/>
<path d="M16938 57923 c7 -3 16 -2 19 1 4 3 -2 6 -13 5 -11 0 -14 -3 -6 -6z"/>
<path d="M17108 57883 c7 -3 16 -2 19 1 4 3 -2 6 -13 5 -11 0 -14 -3 -6 -6z"/>
<path d="M17170 57870 c0 -5 9 -10 20 -10 11 0 20 5 20 10 0 6 -9 10 -20 10
-11 0 -20 -4 -20 -10z"/>
<path d="M17268 57843 c7 -3 16 -2 19 1 4 3 -2 6 -13 5 -11 0 -14 -3 -6 -6z"/>
<path d="M17325 57830 c-3 -5 3 -10 15 -10 12 0 18 5 15 10 -3 6 -10 10 -15
10 -5 0 -12 -4 -15 -10z"/>
<path d="M17380 57811 c0 -10 60 -24 68 -16 3 3 -2 5 -11 5 -9 0 -17 5 -17 10
0 6 -9 10 -20 10 -11 0 -20 -4 -20 -9z"/>
<path d="M17455 57780 c-4 -6 3 -10 14 -10 25 0 27 6 6 13 -8 4 -17 2 -20 -3z"/>
<path d="M17508 57753 c6 -2 18 -2 25 0 6 3 1 5 -13 5 -14 0 -19 -2 -12 -5z"/>
<path d="M17550 57740 c0 -5 7 -10 16 -10 9 0 29 -9 45 -21 16 -11 34 -19 40
-17 13 4 -67 58 -87 58 -8 0 -14 -4 -14 -10z"/>
<path d="M17670 57680 c0 -5 7 -10 15 -10 8 0 15 5 15 10 0 6 -7 10 -15 10 -8
0 -15 -4 -15 -10z"/>
<path d="M17710 57663 c0 -5 16 -18 35 -31 19 -12 35 -17 35 -11 0 6 -9 13
-19 16 -11 3 -22 11 -25 19 -6 15 -26 20 -26 7z"/>
<path d="M17808 57593 c7 -3 16 -2 19 1 4 3 -2 6 -13 5 -11 0 -14 -3 -6 -6z"/>
<path d="M17860 57561 c0 -5 5 -13 10 -16 6 -3 10 -2 10 4 0 5 -4 13 -10 16
-5 3 -10 2 -10 -4z"/>
<path d="M17900 57520 c11 -20 30 -28 30 -12 0 11 -22 32 -32 32 -5 0 -4 -9 2
-20z"/>
<path d="M17940 57490 c0 -5 9 -14 20 -20 22 -12 27 -1 8 18 -14 14 -28 16
-28 2z"/>
<path d="M18000 57431 c12 -23 30 -36 30 -22 0 21 -13 41 -26 41 -11 0 -12 -4
-4 -19z"/>
<path d="M18050 57383 c0 -12 5 -25 10 -28 13 -8 13 15 0 35 -8 12 -10 11 -10
-7z"/>
<path d="M22040 57080 c0 -24 25 -27 34 -4 9 23 8 24 -14 24 -13 0 -20 -7 -20
-20z"/>
<path d="M18262 56980 c0 -14 2 -19 5 -12 2 6 2 18 0 25 -3 6 -5 1 -5 -13z"/>
<path d="M21985 56849 c-20 -4 -23 -7 -10 -8 17 -1 18 -3 5 -11 -13 -9 -13
-11 0 -20 23 -15 27 -12 34 16 8 32 8 32 -29 23z"/>
<path d="M18271 56810 c0 -14 4 -34 9 -45 8 -18 9 -18 9 5 0 14 -4 34 -9 45
-8 18 -9 18 -9 -5z"/>
<path d="M18242 56460 c0 -14 2 -19 5 -12 2 6 2 18 0 25 -3 6 -5 1 -5 -13z"/>
<path d="M21787 56453 c-12 -11 -8 -23 8 -23 8 0 15 7 15 15 0 16 -12 20 -23
8z"/>
<path d="M21647 56306 c-3 -8 2 -16 14 -19 14 -4 19 0 19 14 0 22 -25 26 -33
5z"/>
<path d="M21515 56110 c-3 -5 -1 -10 4 -10 6 0 11 5 11 10 0 6 -2 10 -4 10 -3
0 -8 -4 -11 -10z"/>
<path d="M18107 56063 c-4 -3 -7 -11 -7 -17 0 -6 5 -5 12 2 6 6 9 14 7 17 -3
3 -9 2 -12 -2z"/>
<path d="M21480 56040 c0 -5 7 -10 16 -10 8 0 12 5 9 10 -3 6 -10 10 -16 10
-5 0 -9 -4 -9 -10z"/>
<path d="M21348 55570 c-7 -24 -3 -38 8 -28 3 4 4 17 2 30 l-3 23 -7 -25z"/>
<path d="M21270 55480 c0 -5 5 -10 10 -10 6 0 10 5 10 10 0 6 -4 10 -10 10 -5
0 -10 -4 -10 -10z"/>
<path d="M21273 55435 c-10 -11 -9 -13 7 -12 11 1 22 7 24 14 7 17 -16 16 -31
-2z"/>
<path d="M21160 55235 c0 -9 5 -15 11 -13 6 2 11 8 11 13 0 5 -5 11 -11 13 -6
2 -11 -4 -11 -13z"/>
<path d="M21177 55069 c6 -23 9 -24 16 -5 3 8 0 17 -7 19 -10 4 -12 -1 -9 -14z"/>
<path d="M20985 54680 c-3 -5 -1 -10 4 -10 6 0 11 5 11 10 0 6 -2 10 -4 10 -3
0 -8 -4 -11 -10z"/>
<path d="M20800 54371 c0 -17 18 -21 24 -6 3 9 0 15 -9 15 -8 0 -15 -4 -15 -9z"/>
<path d="M19940 52390 c0 -5 5 -10 10 -10 6 0 10 5 10 10 0 6 -4 10 -10 10 -5
0 -10 -4 -10 -10z"/>
<path d="M19856 52176 c3 -9 13 -16 22 -16 8 0 13 1 11 3 -2 1 -12 9 -22 16
-15 12 -17 12 -11 -3z"/>
<path d="M19525 51130 c-3 -5 -1 -10 4 -10 6 0 11 5 11 10 0 6 -2 10 -4 10 -3
0 -8 -4 -11 -10z"/>
<path d="M19260 50420 c0 -5 5 -10 11 -10 5 0 7 5 4 10 -3 6 -8 10 -11 10 -2
0 -4 -4 -4 -10z"/>
<path d="M18830 49160 c0 -5 5 -10 11 -10 5 0 7 5 4 10 -3 6 -8 10 -11 10 -2
0 -4 -4 -4 -10z"/>
<path d="M18420 47191 c0 -6 4 -13 10 -16 6 -3 7 1 4 9 -7 18 -14 21 -14 7z"/>
</g>
</svg>
